<svg xmlns="http://www.w3.org/2000/svg" width="32" height="32" viewBox="0 0 32 32" fill="none">
  <defs>
    <linearGradient id="g" x1="3" y1="3" x2="29" y2="29" gradientUnits="userSpaceOnUse">
      <stop offset="0%" stop-color="#49EACB"/>
      <stop offset="40%" stop-color="#00D2FF"/>
      <stop offset="100%" stop-color="#7C3AED"/>
    </linearGradient>
    <filter id="glow" x="-50%" y="-50%" width="200%" height="200%">
      <feGaussianBlur stdDeviation="1.1" result="b"/>
      <feMerge><feMergeNode in="b"/><feMergeNode in="SourceGraphic"/></feMerge>
    </filter>
  </defs>
  <g filter="url(#glow)">
    <!-- Compact DAG block -->
    <polygon points="16,3 28,9 28,23 16,29 4,23 4,9" fill="none" stroke="url(#g)" stroke-width="2.1" stroke-linejoin="round"/>
    <!-- Key DAG nodes -->
    <circle cx="16" cy="16" r="2.6" fill="url(#g)"/>
    <circle cx="7" cy="10" r="1.9" fill="#49EACB"/>
    <circle cx="25" cy="10" r="1.9" fill="#00D2FF"/>
    <circle cx="7" cy="22" r="1.9" fill="#3B82F6"/>
    <circle cx="25" cy="22" r="1.9" fill="#7C3AED"/>
    <!-- DAG edges -->
    <path d="M8 12 Q12 9 16 11" fill="none" stroke="url(#g)" stroke-width="1.1" stroke-linecap="round" opacity="0.8"/>
    <path d="M24 12 Q20 9 16 11" fill="none" stroke="url(#g)" stroke-width="1.1" stroke-linecap="round" opacity="0.8"/>
    <path d="M8 20 Q12 23 16 21" fill="none" stroke="url(#g)" stroke-width="1.0" stroke-linecap="round" opacity="0.75"/>
    <path d="M24 20 Q20 23 16 21" fill="none" stroke="url(#g)" stroke-width="1.0" stroke-linecap="round" opacity="0.75"/>
  </g>
</svg>