<svg xmlns="http://www.w3.org/2000/svg" width="48" height="48" fill="none" viewBox="0 0 48 48">
  <defs>
    <linearGradient id="g" x1="0" y1="0" x2="1" y2="1">
      <stop offset="0%" stop-color="#49EACB"/>
      <stop offset="45%" stop-color="#00D2FF"/>
      <stop offset="100%" stop-color="#7e14ff"/>
    </linearGradient>
    <filter id="glow" x="-55%" y="-55%" width="210%" height="210%">
      <feGaussianBlur stdDeviation="1.6" result="b1"/>
      <feGaussianBlur stdDeviation="3.2" result="b2"/>
      <feMerge>
        <feMergeNode in="b2"/>
        <feMergeNode in="b1"/>
        <feMergeNode in="SourceGraphic"/>
      </feMerge>
    </filter>
  </defs>
  <g filter="url(#glow)">
    <!-- Premium refined Covex DAG / Covenant network mark (square favicon version) -->
    <circle cx="8" cy="10" r="2.35" fill="#49EACB"/>
    <circle cx="8" cy="24" r="3.55" fill="#00D2FF"/>
    <circle cx="8" cy="38" r="2.35" fill="#7e14ff"/>
    <circle cx="24" cy="10" r="2.15" fill="#7e14ff" opacity="0.92"/>
    <circle cx="24" cy="38" r="2.15" fill="#49EACB" opacity="0.92"/>
    <circle cx="40" cy="10" r="2.35" fill="#00D2FF"/>
    <circle cx="40" cy="24" r="3.55" fill="#49EACB"/>
    <circle cx="40" cy="38" r="2.35" fill="#7e14ff"/>

    <line x1="8" y1="10" x2="24" y2="10" stroke="url(#g)" stroke-width="1.18" opacity="0.68"/>
    <line x1="8" y1="24" x2="24" y2="10" stroke="url(#g)" stroke-width="0.98" opacity="0.58"/>
    <line x1="8" y1="24" x2="24" y2="38" stroke="url(#g)" stroke-width="0.98" opacity="0.58"/>
    <line x1="8" y1="38" x2="24" y2="38" stroke="url(#g)" stroke-width="1.18" opacity="0.68"/>

    <line x1="24" y1="10" x2="40" y2="10" stroke="url(#g)" stroke-width="1.18" opacity="0.68"/>
    <line x1="24" y1="38" x2="40" y2="38" stroke="url(#g)" stroke-width="1.18" opacity="0.68"/>
    <line x1="24" y1="10" x2="40" y2="24" stroke="url(#g)" stroke-width="0.98" opacity="0.58"/>
    <line x1="24" y1="38" x2="40" y2="24" stroke="url(#g)" stroke-width="0.98" opacity="0.58"/>

    <line x1="8" y1="10" x2="8" y2="24" stroke="url(#g)" stroke-width="1.08" opacity="0.62"/>
    <line x1="8" y1="24" x2="8" y2="38" stroke="url(#g)" stroke-width="1.08" opacity="0.62"/>
    <line x1="40" y1="10" x2="40" y2="24" stroke="url(#g)" stroke-width="1.08" opacity="0.62"/>
    <line x1="40" y1="24" x2="40" y2="38" stroke="url(#g)" stroke-width="1.08" opacity="0.62"/>
  </g>
</svg>
