<svg xmlns="http://www.w3.org/2000/svg" width="48" height="46" fill="none" viewBox="0 0 48 46">
  <defs>
    <filter id="g" x="-40%" y="-40%" width="180%" height="180%">
      <feGaussianBlur stdDeviation="1.5" result="b"/>
      <feMerge><feMergeNode in="b"/><feMergeNode in="SourceGraphic"/></feMerge>
    </filter>
    <linearGradient id="gg" x1="0" y1="0" x2="1" y2="1">
      <stop offset="0%" stop-color="#49EACB"/>
      <stop offset="50%" stop-color="#00D2FF"/>
      <stop offset="100%" stop-color="#7e14ff"/>
    </linearGradient>
  </defs>
  <!-- Interconnected nodes forming C-shape -->
  <line x1="22" y1="7" x2="18" y2="11" stroke="url(#gg)" stroke-width="1" opacity="0.5"/>
  <line x1="18" y1="11" x2="10" y2="17" stroke="url(#gg)" stroke-width="1" opacity="0.6"/>
  <line x1="10" y1="17" x2="8" y2="25" stroke="url(#gg)" stroke-width="1" opacity="0.7"/>
  <line x1="8" y1="25" x2="10" y2="33" stroke="url(#gg)" stroke-width="1" opacity="0.8"/>
  <line x1="10" y1="33" x2="18" y2="38" stroke="url(#gg)" stroke-width="1" opacity="0.7"/>
  <line x1="18" y1="38" x2="22" y2="40" stroke="url(#gg)" stroke-width="1" opacity="0.6"/>
  <line x1="20" y1="12" x2="28" y2="8" stroke="url(#gg)" stroke-width="1" opacity="0.4"/>
  <line x1="28" y1="8" x2="34" y2="14" stroke="url(#gg)" stroke-width="1" opacity="0.4"/>
  <line x1="34" y1="14" x2="37" y2="22" stroke="url(#gg)" stroke-width="1" opacity="0.5"/>
  <line x1="20" y1="20" x2="28" y2="16" stroke="url(#gg)" stroke-width="1" opacity="0.5"/>
  <line x1="28" y1="16" x2="36" y2="28" stroke="url(#gg)" stroke-width="1" opacity="0.6"/>
  <line x1="36" y1="28" x2="32" y2="36" stroke="url(#gg)" stroke-width="1" opacity="0.6"/>
  <line x1="20" y1="32" x2="28" y2="30" stroke="url(#gg)" stroke-width="1" opacity="0.5"/>
  <line x1="11" y1="25" x2="20" y2="20" stroke="url(#gg)" stroke-width="1" opacity="0.4"/>
  <line x1="11" y1="25" x2="20" y2="32" stroke="url(#gg)" stroke-width="1" opacity="0.4"/>
  <!-- Main nodes -->
  <circle cx="22" cy="7" r="2.5" fill="#49EACB" filter="url(#g)" opacity="0.9"/>
  <circle cx="18" cy="11" r="2" fill="#00D2FF" opacity="0.8"/>
  <circle cx="10" cy="17" r="2.5" fill="#49EACB" filter="url(#g)" opacity="0.9"/>
  <circle cx="8" cy="25" r="3" fill="#49EACB" filter="url(#g)"/>
  <circle cx="10" cy="33" r="2.5" fill="#49EACB" filter="url(#g)" opacity="0.9"/>
  <circle cx="18" cy="38" r="2" fill="#00D2FF" opacity="0.8"/>
  <circle cx="22" cy="40" r="2.5" fill="#7e14ff" opacity="0.9"/>
  <!-- Peripheral nodes -->
  <circle cx="28" cy="8" r="1.5" fill="#7e14ff" opacity="0.6"/>
  <circle cx="34" cy="14" r="1.5" fill="#00D2FF" opacity="0.6"/>
  <circle cx="37" cy="22" r="1.5" fill="#49EACB" opacity="0.5"/>
  <circle cx="36" cy="28" r="1.5" fill="#00D2FF" opacity="0.5"/>
  <circle cx="32" cy="36" r="1.5" fill="#7e14ff" opacity="0.5"/>
  <circle cx="28" cy="16" r="1.2" fill="#49EACB" opacity="0.4"/>
  <circle cx="28" cy="30" r="1.2" fill="#49EACB" opacity="0.4"/>
  <circle cx="20" cy="12" r="1.2" fill="#00D2FF" opacity="0.5"/>
  <circle cx="20" cy="20" r="1.2" fill="#49EACB" opacity="0.5"/>
  <circle cx="20" cy="32" r="1.2" fill="#7e14ff" opacity="0.5"/>
</svg>
