<svg xmlns="http://www.w3.org/2000/svg" width="48" height="48" viewBox="0 0 512 512" fill="none">
  <defs>
    <linearGradient id="g" x1="100" y1="100" x2="400" y2="400" gradientUnits="userSpaceOnUse">
      <stop offset="0%" stop-color="#00ff9d"/><stop offset="50%" stop-color="#00e5ff"/><stop offset="100%" stop-color="#00b8ff"/>
    </linearGradient>
    <filter id="glow" x="-150%" y="-150%" width="400%" height="400%">
      <feGaussianBlur stdDeviation="4" result="b"/>
      <feMerge><feMergeNode in="b"/><feMergeNode in="SourceGraphic"/></feMerge>
    </filter>
  </defs>
  <g filter="url(#glow)" stroke="url(#g)" stroke-width="22" stroke-linecap="round" stroke-linejoin="round">
    <line x1="140" y1="120" x2="200" y2="90"/><line x1="200" y1="90" x2="280" y2="85"/><line x1="280" y1="85" x2="360" y2="110"/>
    <line x1="360" y1="110" x2="395" y2="170"/><line x1="395" y1="170" x2="400" y2="250"/><line x1="400" y1="250" x2="385" y2="320"/>
    <line x1="385" y1="320" x2="320" y2="370"/><line x1="320" y1="370" x2="240" y2="390"/><line x1="240" y1="390" x2="160" y2="365"/>
    <line x1="160" y1="365" x2="125" y2="300"/><line x1="125" y1="300" x2="120" y2="200"/><line x1="120" y1="200" x2="140" y2="120"/>
    <line x1="180" y1="180" x2="260" y2="200"/><line x1="260" y1="200" x2="320" y2="230"/><line x1="320" y1="230" x2="340" y2="290"/>
    <line x1="200" y1="280" x2="280" y2="290"/><line x1="150" y1="220" x2="230" y2="250"/>
  </g>
  <g fill="#00ff9d">
    <circle cx="140" cy="120" r="7"/><circle cx="200" cy="90" r="6"/><circle cx="280" cy="85" r="6.5"/><circle cx="360" cy="110" r="7"/>
    <circle cx="400" cy="250" r="6"/><circle cx="240" cy="390" r="6.5"/><circle cx="120" cy="200" r="6"/><circle cx="260" cy="200" r="4"/>
    <circle cx="320" cy="230" r="4"/><circle cx="280" cy="290" r="4"/>
  </g>
</svg>
