<svg xmlns="http://www.w3.org/2000/svg" width="512" height="512" viewBox="0 0 512 512" fill="none">
  <defs>
    <linearGradient id="ft" x1="0" y1="0" x2="0" y2="1"><stop offset="0" stop-color="#d7fbf4"/><stop offset="1" stop-color="#7fe9d8"/></linearGradient>
    <linearGradient id="fl" x1="0" y1="0" x2="1" y2="1"><stop offset="0" stop-color="#5cead3"/><stop offset="1" stop-color="#2bb6a3"/></linearGradient>
    <linearGradient id="fr" x1="0" y1="0" x2="1" y2="1"><stop offset="0" stop-color="#33c6b2"/><stop offset="1" stop-color="#178f80"/></linearGradient>
    <linearGradient id="fb" x1="10" y1="8" x2="54" y2="56" gradientUnits="userSpaceOnUse"><stop offset="0" stop-color="#eafffb"/><stop offset="0.5" stop-color="#49EACB"/><stop offset="1" stop-color="#1c9d8c"/></linearGradient>
    <radialGradient id="bgglow" cx="0.5" cy="0.42" r="0.6"><stop offset="0" stop-color="#0c1c1f"/><stop offset="1" stop-color="#05050A"/></radialGradient>
    <filter id="glow" x="-30%" y="-30%" width="160%" height="160%"><feGaussianBlur stdDeviation="6" result="b"/><feMerge><feMergeNode in="b"/><feMergeNode in="SourceGraphic"/></feMerge></filter>
  </defs>
  <rect width="512" height="512" rx="110" fill="url(#bgglow)"/>
  <g transform="translate(96 96) scale(5)" filter="url(#glow)">
    <path fill-rule="evenodd" fill="url(#fb)" d="M32 4 L56 18 L56 26 L44 19 L32 12 L14 22.5 L14 41.5 L32 52 L44 45 L56 38 L56 46 L32 60 L8 46 L8 18 Z"/>
    <g stroke="#eafffb" stroke-width="0.9" stroke-opacity="0.6" stroke-linejoin="round" fill="none"><path d="M32 12 L14 22.5 L14 41.5 L32 52"/></g>
    <g><path d="M49 17 L55 20.4 L49 23.8 L43 20.4 Z" fill="url(#ft)"/><path d="M43 20.4 L49 23.8 L49 30.6 L43 27.2 Z" fill="url(#fl)"/><path d="M55 20.4 L49 23.8 L49 30.6 L55 27.2 Z" fill="url(#fr)"/></g>
    <g><path d="M32 25 L39 29 L32 33 L25 29 Z" fill="url(#ft)"/><path d="M25 29 L32 33 L32 41 L25 37 Z" fill="url(#fl)"/><path d="M39 29 L32 33 L32 41 L39 37 Z" fill="url(#fr)"/></g>
    <g><path d="M49 40.2 L55 43.6 L49 47 L43 43.6 Z" fill="url(#ft)"/><path d="M43 43.6 L49 47 L49 53.8 L43 50.4 Z" fill="url(#fl)"/><path d="M55 43.6 L49 47 L49 53.8 L55 50.4 Z" fill="url(#fr)"/></g>
  </g>
</svg>
